<?xml version="1.0" encoding="utf-8"?>
<svg viewBox="0 0 350 350" xmlns="http://www.w3.org/2000/svg">
  <g transform="matrix(1, 0, 0, 1, 17.116646, 4.789205)">
    <path d="M 275.545 255.348 L 123.566 255.348 C 119.281 255.343 115.808 251.87 115.803 247.585 L 115.803 134.826 C 115.808 130.54 119.281 127.069 123.566 127.064 L 275.545 127.064 C 279.83 127.069 283.303 130.54 283.308 134.826 L 283.308 247.585 C 283.303 251.87 279.83 255.343 275.545 255.348 Z" fill="#fff"/>
    <path d="M 143.239 200.936 L 172.631 201.419 L 189.75 201.419 C 191.329 201.417 192.609 200.138 192.61 198.559 L 192.61 197.559 L 177.869 181.709 C 176.765 180.522 174.898 180.489 173.752 181.634 L 159.254 196.133 C 158.456 196.929 157.165 196.929 156.366 196.134 L 154.221 193.991 C 153.102 192.877 151.293 192.877 150.177 193.994 L 143.239 200.936 Z" style="fill: rgb(0, 153, 255);"/>
    <path d="M 275.545 255.348 L 123.566 255.348 C 119.281 255.343 115.808 251.87 115.803 247.585 L 115.803 134.826 C 115.808 130.54 119.281 127.069 123.566 127.064 L 275.545 127.064 C 279.83 127.069 283.303 130.54 283.308 134.826 L 283.308 247.585 C 283.303 251.87 279.83 255.343 275.545 255.348 Z M 123.566 129.515 C 120.634 129.518 118.258 131.894 118.255 134.826 L 118.255 247.585 C 118.258 250.517 120.634 252.893 123.566 252.896 L 275.545 252.896 C 278.477 252.893 280.853 250.517 280.856 247.585 L 280.856 134.826 C 280.853 131.894 278.477 129.518 275.545 129.515 L 123.566 129.515 Z" fill="#3f3d56"/>
    <path d="M 258.386 147.083 L 140.725 147.083 C 138.838 147.083 137.658 145.04 138.602 143.406 C 139.04 142.647 139.849 142.18 140.725 142.18 L 258.386 142.18 C 260.274 142.18 261.453 144.223 260.509 145.857 C 260.071 146.615 259.262 147.083 258.386 147.083 Z" fill="#3f3d56"/>
    <path d="M 258.795 160.565 L 141.133 160.565 C 139.247 160.565 138.067 158.522 139.01 156.888 C 139.448 156.129 140.257 155.662 141.133 155.662 L 258.795 155.662 C 260.682 155.662 261.861 157.705 260.918 159.339 C 260.48 160.097 259.671 160.565 258.795 160.565 Z" fill="#3f3d56"/>
    <path d="M 259.203 174.047 L 202.824 174.047 C 200.937 174.047 199.757 172.004 200.701 170.37 C 201.139 169.611 201.948 169.144 202.824 169.144 L 259.203 169.144 C 261.091 169.144 262.27 171.187 261.326 172.821 C 260.888 173.579 260.079 174.047 259.203 174.047 Z" fill="#3f3d56"/>
    <path d="M 259.612 187.529 L 203.232 187.529 C 201.346 187.529 200.166 185.486 201.11 183.852 C 201.548 183.093 202.357 182.626 203.232 182.626 L 259.612 182.626 C 261.499 182.626 262.678 184.669 261.735 186.303 C 261.297 187.061 260.488 187.529 259.612 187.529 Z" fill="#3f3d56"/>
    <path d="M 260.02 201.011 L 203.641 201.011 C 201.754 201.011 200.574 198.968 201.518 197.334 C 201.956 196.575 202.765 196.108 203.641 196.108 L 260.02 196.108 C 261.908 196.108 263.087 198.151 262.143 199.785 C 261.705 200.543 260.896 201.011 260.02 201.011 Z" fill="#3f3d56"/>
    <path d="M 260.429 214.493 L 142.767 214.493 C 140.881 214.493 139.701 212.45 140.645 210.816 C 141.083 210.057 141.892 209.59 142.767 209.59 L 260.429 209.59 C 262.316 209.59 263.496 211.633 262.552 213.267 C 262.114 214.025 261.305 214.493 260.429 214.493 Z" fill="#3f3d56"/>
    <path d="M 260.838 227.975 L 143.176 227.975 C 141.289 227.975 140.109 225.932 141.053 224.298 C 141.491 223.539 142.3 223.072 143.176 223.072 L 260.838 223.072 C 262.725 223.072 263.904 225.115 262.96 226.749 C 262.522 227.507 261.713 227.975 260.838 227.975 Z" fill="#3f3d56"/>
    <path d="M 261.246 241.457 L 143.585 241.457 C 141.698 241.457 140.518 239.414 141.462 237.78 C 141.9 237.021 142.709 236.554 143.585 236.554 L 261.246 236.554 C 263.134 236.554 264.313 238.597 263.369 240.231 C 262.931 240.99 262.122 241.457 261.246 241.457 Z" fill="#3f3d56"/>
    <path d="M 189.75 201.828 L 143.993 201.828 C 143.312 201.829 142.642 201.658 142.045 201.329 L 142.034 201.329 L 141.826 201.204 C 140.631 200.46 139.905 199.15 139.908 197.742 L 139.908 173.23 C 139.91 170.974 141.738 169.147 143.993 169.144 L 189.75 169.144 C 192.006 169.147 193.833 170.974 193.836 173.23 L 193.836 197.742 C 193.833 199.998 192.006 201.825 189.75 201.828 Z M 142.593 199.752 L 142.709 199.824 C 143.093 200.067 143.539 200.195 143.993 200.194 L 189.75 200.194 C 191.103 200.192 192.2 199.095 192.202 197.742 L 192.202 173.23 C 192.2 171.876 191.103 170.779 189.75 170.778 L 143.993 170.778 C 142.64 170.779 141.543 171.876 141.542 173.23 L 141.542 197.742 C 141.541 198.544 141.933 199.295 142.593 199.752 Z" fill="#3f3d56"/>
    <path d="M 2.754 273.39 C 1.08 273.753 0.429 275.791 1.58 277.059 C 1.653 277.139 1.731 277.213 1.815 277.282 L 11.642 285.349 C 11.786 285.469 11.905 285.616 11.992 285.781 C 12.074 285.948 12.121 286.131 12.129 286.316 L 12.827 301.213 C 12.856 302.217 13.568 303.071 14.55 303.278 L 14.567 303.282 C 15.537 303.513 16.54 303.054 16.998 302.169 L 20.487 295.714 C 20.725 295.281 21.184 295.016 21.677 295.022 C 22.039 295.022 22.383 295.173 22.628 295.437 L 39.662 313.399 C 40.161 313.928 40.889 314.177 41.608 314.066 C 42.324 313.954 42.941 313.503 43.264 312.853 L 67.788 263.049 C 68.547 261.516 67.361 259.736 65.653 259.846 C 65.543 259.853 65.433 259.868 65.325 259.892 L 64.522 260.065 L 2.754 273.39 Z M 2.376 276.596 C 1.583 275.942 1.795 274.674 2.758 274.314 C 2.818 274.292 2.88 274.273 2.943 274.26 L 64.693 260.94 L 65.515 260.762 C 66.521 260.549 67.381 261.504 67.063 262.483 C 67.043 262.542 67.02 262.599 66.993 262.655 L 42.468 312.459 C 42.057 313.289 40.945 313.458 40.307 312.786 L 23.273 294.825 C 23.107 294.645 22.91 294.495 22.693 294.383 L 65.519 262.924 C 66.074 262.525 65.989 261.673 65.365 261.392 C 65.18 261.308 64.973 261.29 64.777 261.341 C 64.728 261.353 64.679 261.369 64.634 261.391 L 12.549 285.012 C 12.448 284.883 12.331 284.766 12.203 284.663 L 2.376 276.596 Z" fill="#e6e6e6"/>
    <path d="M 2.754 273.39 C 1.08 273.753 0.429 275.791 1.58 277.059 C 1.653 277.139 1.731 277.213 1.815 277.282 L 11.642 285.349 C 11.786 285.469 11.905 285.616 11.992 285.781 C 12.074 285.948 12.121 286.131 12.129 286.316 L 12.827 301.213 C 12.856 302.217 13.568 303.071 14.55 303.278 L 14.567 303.282 C 15.537 303.513 16.54 303.054 16.998 302.169 L 20.487 295.714 C 20.725 295.281 21.184 295.016 21.677 295.022 C 22.039 295.022 22.383 295.173 22.628 295.437 L 39.662 313.399 C 40.161 313.928 40.889 314.177 41.608 314.066 C 42.324 313.954 42.941 313.503 43.264 312.853 L 67.788 263.049 C 68.547 261.516 67.361 259.736 65.653 259.846 C 65.543 259.853 65.433 259.868 65.325 259.892 L 64.522 260.065 L 2.754 273.39 Z M 2.376 276.596 C 1.583 275.942 1.795 274.674 2.758 274.314 C 2.818 274.292 2.88 274.273 2.943 274.26 L 64.693 260.94 L 65.515 260.762 C 66.521 260.549 67.381 261.504 67.063 262.483 C 67.043 262.542 67.02 262.599 66.993 262.655 L 42.468 312.459 C 42.057 313.289 40.945 313.458 40.307 312.786 L 23.273 294.825 C 23.107 294.645 22.91 294.495 22.693 294.383 C 22.382 294.218 22.035 294.132 21.684 294.132 C 21.634 294.13 21.583 294.133 21.533 294.135 L 21.529 294.134 C 20.762 294.178 20.073 294.616 19.707 295.292 L 16.217 301.749 C 15.943 302.283 15.338 302.558 14.755 302.414 L 14.747 302.412 C 14.155 302.291 13.726 301.776 13.715 301.173 L 13.015 286.276 C 13.01 286.118 12.987 285.962 12.946 285.81 L 12.947 285.806 C 12.908 285.659 12.854 285.518 12.786 285.383 C 12.72 285.252 12.641 285.127 12.549 285.012 C 12.448 284.883 12.331 284.766 12.203 284.663 L 2.376 276.596 Z" fill="#ccc"/>
    <path d="M 12.549 285.012 L 64.634 261.391 C 64.679 261.369 64.728 261.353 64.777 261.341 C 65.44 261.17 66.04 261.781 65.856 262.441 C 65.802 262.636 65.683 262.807 65.519 262.924 L 22.693 294.383 L 21.937 294.939 L 21.413 294.222 L 21.529 294.134 L 21.533 294.135 L 64.99 262.207 L 12.947 285.806 L 12.946 285.81 L 12.719 285.91 L 12.352 285.1 L 12.549 285.012 Z" fill="#ccc"/>
    <path d="M 313.015 298.72 L 251.246 285.395 L 250.442 285.222 C 248.771 284.859 247.333 286.442 247.855 288.071 C 247.888 288.177 247.93 288.28 247.979 288.379 L 272.504 338.183 C 272.826 338.832 273.444 339.285 274.159 339.395 C 274.879 339.507 275.607 339.258 276.105 338.729 L 293.14 320.767 C 293.385 320.503 293.729 320.352 294.09 320.352 C 294.584 320.346 295.042 320.611 295.281 321.044 L 298.77 327.499 C 299.228 328.383 300.23 328.843 301.2 328.612 L 301.218 328.608 C 302.2 328.401 302.911 327.547 302.94 326.543 L 303.639 311.646 C 303.648 311.461 303.694 311.278 303.775 311.111 C 303.863 310.946 303.982 310.799 304.126 310.679 L 313.953 302.611 C 315.276 301.526 314.928 299.414 313.325 298.811 C 313.224 298.773 313.12 298.743 313.015 298.72 Z M 313.391 301.926 L 303.564 309.993 C 303.437 310.096 303.321 310.213 303.219 310.342 L 251.134 286.721 C 251.088 286.699 251.04 286.683 250.991 286.671 C 250.327 286.5 249.728 287.111 249.911 287.771 C 249.966 287.966 250.085 288.137 250.25 288.254 L 293.074 319.712 C 292.857 319.825 292.661 319.975 292.494 320.154 L 275.46 338.116 C 274.822 338.788 273.71 338.619 273.299 337.789 L 248.775 287.985 C 248.324 287.06 249.044 285.994 250.07 286.066 C 250.131 286.071 250.192 286.079 250.253 286.092 L 251.075 286.27 L 312.824 299.59 C 313.829 299.807 314.222 301.031 313.531 301.793 C 313.488 301.84 313.441 301.885 313.391 301.926 Z" fill="#e6e6e6"/>
    <path d="M 313.015 298.72 L 251.246 285.395 L 250.442 285.222 C 248.771 284.859 247.333 286.442 247.855 288.071 C 247.888 288.177 247.93 288.28 247.979 288.379 L 272.504 338.183 C 272.826 338.832 273.444 339.285 274.159 339.395 C 274.879 339.507 275.607 339.258 276.105 338.729 L 293.14 320.767 C 293.385 320.503 293.729 320.352 294.09 320.352 C 294.584 320.346 295.042 320.611 295.281 321.044 L 298.77 327.499 C 299.228 328.383 300.23 328.843 301.2 328.612 L 301.218 328.608 C 302.2 328.401 302.911 327.547 302.94 326.543 L 303.639 311.646 C 303.648 311.461 303.694 311.278 303.775 311.111 C 303.863 310.946 303.982 310.799 304.126 310.679 L 313.953 302.611 C 315.276 301.526 314.928 299.414 313.325 298.811 C 313.224 298.773 313.12 298.743 313.015 298.72 Z M 313.391 301.926 L 303.564 309.993 C 303.437 310.096 303.321 310.213 303.219 310.342 C 303.127 310.457 303.048 310.581 302.982 310.713 C 302.914 310.848 302.86 310.989 302.821 311.135 L 302.821 311.14 C 302.781 311.292 302.758 311.448 302.752 311.606 L 302.053 326.503 C 302.041 327.106 301.612 327.621 301.021 327.742 L 301.012 327.744 C 300.43 327.888 299.825 327.613 299.551 327.079 L 296.061 320.622 C 295.695 319.946 295.006 319.508 294.239 319.464 L 294.235 319.465 C 294.184 319.462 294.133 319.46 294.084 319.462 C 293.732 319.462 293.386 319.548 293.074 319.712 C 292.857 319.825 292.661 319.975 292.494 320.154 L 275.46 338.116 C 274.822 338.788 273.71 338.619 273.299 337.789 L 248.775 287.985 C 248.324 287.06 249.044 285.994 250.07 286.066 C 250.131 286.071 250.192 286.079 250.253 286.092 L 251.075 286.27 L 312.824 299.59 C 313.829 299.807 314.222 301.031 313.531 301.793 C 313.488 301.84 313.441 301.885 313.391 301.926 Z" fill="#ccc"/>
    <path d="M 303.416 310.43 L 303.049 311.24 L 302.821 311.14 L 302.821 311.135 L 250.777 287.537 L 294.235 319.465 L 294.239 319.464 L 294.354 319.552 L 293.83 320.269 L 293.074 319.712 L 250.25 288.254 C 249.693 287.855 249.779 287.003 250.403 286.721 C 250.588 286.638 250.795 286.62 250.991 286.671 C 251.04 286.683 251.088 286.699 251.134 286.721 L 303.219 310.342 L 303.416 310.43 Z" fill="#ccc"/>
    <path d="M 70.255 1.945 C 68.617 0.24 65.748 0.949 65.091 3.219 C 65.059 3.329 65.034 3.441 65.014 3.553 L 62.452 20.473 C 62.412 20.722 62.323 20.961 62.191 21.176 C 62.051 21.387 61.869 21.566 61.657 21.704 L 44.623 32.812 C 43.468 33.525 42.963 34.945 43.409 36.228 L 43.416 36.25 C 43.843 37.539 45.086 38.376 46.44 38.286 L 56.493 37.849 C 57.166 37.822 57.8 38.166 58.146 38.744 C 58.401 39.158 58.467 39.662 58.328 40.127 L 49.206 72.206 C 48.936 73.15 49.156 74.167 49.793 74.913 C 50.436 75.666 51.401 76.065 52.387 75.986 L 128.269 69.846 C 128.955 69.793 129.603 69.511 130.11 69.046 C 131.337 67.927 131.398 66.015 130.246 64.82 L 129.477 64.013 L 70.255 1.945 Z M 66.217 3.727 C 66.279 3.325 66.476 2.958 66.775 2.683 C 67.519 2.005 68.667 2.041 69.365 2.766 L 128.568 64.815 L 129.357 65.64 C 129.634 65.932 129.804 66.309 129.84 66.709 C 129.919 67.708 129.172 68.58 128.173 68.655 L 52.291 74.795 C 52.077 74.811 51.861 74.792 51.654 74.735 C 50.688 74.483 50.116 73.489 50.382 72.527 L 59.504 40.449 C 59.598 40.132 59.636 39.802 59.615 39.474 L 126.815 67.14 C 127.277 67.336 127.811 67.234 128.168 66.881 C 128.641 66.415 128.636 65.649 128.156 65.189 C 128.107 65.14 128.053 65.097 127.996 65.059 L 63.487 21.287 C 63.567 21.08 63.624 20.865 63.655 20.646 L 66.217 3.727 Z" fill="#e6e6e6"/>
    <path d="M 70.255 1.945 C 68.617 0.24 65.748 0.949 65.091 3.219 C 65.059 3.329 65.034 3.441 65.014 3.553 L 62.452 20.473 C 62.412 20.722 62.323 20.961 62.191 21.176 C 62.051 21.387 61.869 21.566 61.657 21.704 L 44.623 32.812 C 43.468 33.525 42.963 34.945 43.409 36.228 L 43.416 36.25 C 43.843 37.539 45.086 38.376 46.44 38.286 L 56.493 37.849 C 57.166 37.822 57.8 38.166 58.146 38.744 C 58.401 39.158 58.467 39.662 58.328 40.127 L 49.206 72.206 C 48.936 73.15 49.156 74.167 49.793 74.913 C 50.436 75.666 51.401 76.065 52.387 75.986 L 128.269 69.846 C 128.955 69.793 129.603 69.511 130.11 69.046 C 131.337 67.927 131.398 66.015 130.246 64.82 L 129.477 64.013 L 70.255 1.945 Z M 66.217 3.727 C 66.279 3.325 66.476 2.958 66.775 2.683 C 67.519 2.005 68.667 2.041 69.365 2.766 L 128.568 64.815 L 129.357 65.64 C 129.634 65.932 129.804 66.309 129.84 66.709 C 129.919 67.708 129.172 68.58 128.173 68.655 L 52.291 74.795 C 52.077 74.811 51.861 74.792 51.654 74.735 C 50.688 74.483 50.116 73.489 50.382 72.527 L 59.504 40.449 C 59.598 40.132 59.636 39.802 59.615 39.474 C 59.589 39 59.446 38.54 59.198 38.135 C 59.166 38.076 59.127 38.02 59.088 37.963 L 59.086 37.957 C 58.486 37.099 57.487 36.608 56.441 36.656 L 46.382 37.094 C 45.568 37.152 44.819 36.644 44.571 35.866 L 44.567 35.855 C 44.293 35.086 44.598 34.23 45.296 33.808 L 62.329 22.7 C 62.511 22.584 62.678 22.449 62.829 22.297 L 62.834 22.294 C 62.979 22.149 63.107 21.989 63.218 21.816 C 63.326 21.65 63.417 21.472 63.487 21.287 C 63.567 21.08 63.624 20.865 63.655 20.646 L 66.217 3.727 Z" fill="#ccc"/>
    <path d="M 63.487 21.287 L 127.996 65.059 C 128.053 65.097 128.107 65.14 128.156 65.189 C 128.513 65.532 128.619 66.062 128.419 66.515 C 128.144 67.126 127.431 67.404 126.815 67.14 L 59.615 39.474 L 58.428 38.986 L 58.902 37.886 L 59.086 37.957 L 59.088 37.963 L 127.287 66.034 L 62.834 22.294 L 62.829 22.297 L 62.551 22.104 L 63.245 21.121 L 63.487 21.287 Z" fill="#ccc"/>
  </g>
</svg>