<?xml version="1.0" encoding="utf-8"?>
<svg viewBox="0 0 520 196" xmlns="http://www.w3.org/2000/svg" xmlns:bx="https://boxy-svg.com">
  <defs>
    <style bx:fonts="Inter">@import url(https://fonts.googleapis.com/css2?family=Inter%3Aital%2Cwght%400%2C100%3B0%2C200%3B0%2C300%3B0%2C400%3B0%2C500%3B0%2C600%3B0%2C700%3B0%2C800%3B0%2C900&amp;display=swap);</style>
  </defs>
  <g>
    <g>
      <ellipse style="stroke: rgb(0, 0, 0); fill: none; stroke-width: 9px;" cx="88.786" cy="99.428" rx="77.202" ry="79.243"/>
      <g>
        <rect style="fill: rgb(0, 0, 0); fill-opacity: 1; fill-rule: nonzero; stroke-width: 3.25565; paint-order: fill;" id="rect184" width="23.949" height="12.126" x="25.323" y="-98.768" ry="6.063" transform="matrix(0, 1, -1, 0, 38.858986, 62.12952)" rx="6.063"/>
        <rect style="fill: rgb(0, 0, 0); fill-opacity: 1; fill-rule: nonzero; stroke-width: 4.60418; paint-order: fill;" id="rect344" width="47.897" height="12.126" x="1.375" y="-77.379" ry="6.063" transform="matrix(0, 1, -1, 0, 38.858986, 62.12952)" rx="6.063"/>
        <rect style="fill: rgb(0, 0, 0); fill-opacity: 1; fill-rule: nonzero; stroke-width: 5.63896; paint-order: fill;" id="rect346" width="71.846" height="12.126" x="1.375" y="-55.99" ry="6.063" transform="matrix(0, 1, -1, 0, 38.858986, 62.12952)" rx="6.063"/>
        <rect style="fill: rgb(0, 0, 0); fill-opacity: 1; fill-rule: nonzero; stroke-width: 4.60418; paint-order: fill;" id="rect348" width="47.897" height="12.126" x="25.323" y="-34.601" ry="6.063" transform="matrix(0, 1, -1, 0, 38.858986, 62.12952)" rx="6.063"/>
        <rect style="fill: rgb(0, 0, 0); fill-opacity: 1; fill-rule: nonzero; stroke-width: 3.25565; paint-order: fill;" id="rect350" width="23.949" height="12.126" x="25.323" y="-13.212" ry="6.063" transform="matrix(0, 1, -1, 0, 38.858986, 62.12952)" rx="6.063"/>
      </g>
    </g>
    <text style="font-family: Inter; font-size: 69px; font-weight: 600; white-space: pre;" x="192.016" y="124.509">Voicebits</text>
  </g>
</svg>