<?xml version="1.0" encoding="utf-8"?>
<svg viewBox="0 0 500 500" xmlns="http://www.w3.org/2000/svg">
  <path d="M 211.95 465.94 C 210.461 456.915 209.001 447.884 207.482 438.865 C 205.942 429.714 202.796 421.335 195.675 415.329 C 193.772 413.725 191.799 412.226 189.818 410.733 C 189.122 410.209 188.426 409.683 187.738 409.146 C 187.697 409.114 187.671 409.093 187.635 409.066 C 187.559 409.001 187.469 408.924 187.346 408.82 C 184.379 406.309 181.51 403.685 178.779 400.896 C 176.353 398.42 174.034 395.837 171.82 393.149 C 171.266 392.478 170.72 391.8 170.181 391.118 C 170.088 391 169.589 390.355 169.261 389.933 C 168.955 389.512 168.395 388.751 168.301 388.618 C 167.671 387.727 167.053 386.829 166.446 385.922 C 162.31 379.725 158.728 373.175 155.743 366.349 C 155.447 365.672 155.158 364.991 154.875 364.306 C 154.8 364.097 154.702 363.828 154.572 363.471 C 153.97 361.816 153.37 360.165 152.82 358.49 C 151.652 354.935 150.647 351.327 149.806 347.666 C 149.39 345.859 149.016 344.043 148.683 342.216 C 148.511 341.277 148.351 340.337 148.201 339.394 C 148.177 339.237 148.031 338.22 147.945 337.645 C 147.882 337.067 147.764 336.045 147.748 335.887 C 147.653 334.937 147.568 333.986 147.494 333.033 C 147.329 330.89 147.216 328.744 147.158 326.594 C 147.058 322.773 147.127 318.953 147.363 315.133 C 147.498 312.987 147.69 310.846 147.926 308.709 C 147.94 308.577 147.951 308.472 147.962 308.378 C 147.976 308.283 147.993 308.174 148.012 308.04 C 148.187 306.859 148.371 305.68 148.576 304.504 C 149.355 300.04 150.368 295.621 151.612 291.263 C 152.2 289.203 152.839 287.159 153.529 285.132 C 153.836 284.232 154.154 283.335 154.481 282.442 C 154.46 282.5 155.44 279.994 155.453 279.911 C 159.345 270.716 165.711 262.333 165.719 251.888 C 165.725 244.816 159.743 238.041 152.733 238.368 C 145.47 238.642 139.728 244.619 139.747 251.888 C 139.747 252.047 139.747 252.182 139.746 252.314 C 139.681 252.534 139.626 252.717 139.577 252.88 C 138.818 254.529 137.888 256.096 137.055 257.704 C 134.774 262.106 132.828 266.653 130.978 271.265 C 127.95 278.777 125.633 286.557 124.055 294.501 C 120.627 311.907 120.361 329.788 123.27 347.289 C 128.304 377.979 144.909 407.357 167.993 427.103 C 169.996 428.817 172.048 430.473 174.119 432.096 C 174.977 432.767 175.841 433.426 176.71 434.081 C 177.12 434.39 178.821 435.732 178.073 435.082 C 179.682 436.455 180.359 437.146 180.773 438.158 C 180.832 438.391 180.914 438.707 181.024 439.14 C 181.316 440.281 181.592 441.419 181.822 442.575 C 183.832 452.681 185.228 462.957 186.906 473.128 C 188.06 480.116 196.663 484.665 202.881 482.571 C 210.117 480.132 213.186 473.428 211.95 465.94 Z" fill="#e6e6e6" style="fill-opacity: 0.5;"/>
  <path d="M 323.533 492.151 C 312.178 492.181 302.942 483.013 302.886 471.657 L 302.886 456.845 C 287.377 458.581 234.268 458.178 219.046 455.733 L 219.046 471.065 C 218.926 486.96 201.645 496.765 187.939 488.715 C 181.674 485.035 177.804 478.331 177.749 471.065 L 177.749 440.961 C 135.764 417.637 109.682 373.424 109.573 325.395 C 109.573 284.951 127.902 247.224 159.86 221.886 C 180.64 205.355 205.886 195.414 232.357 193.338 C 235.95 193.056 239.564 192.913 243.101 192.913 C 255.562 192.913 311.78 194.839 325.885 198.897 L 358.048 166.982 C 359.016 166.01 360.475 165.718 361.741 166.246 C 363.018 166.754 363.851 167.994 363.839 169.368 L 363.839 174.442 L 370.102 168.24 C 371.067 167.266 372.526 166.975 373.791 167.503 C 375.07 168.01 375.903 169.251 375.892 170.626 L 375.892 227.33 C 445.835 290.385 429.222 404.287 344.181 444.737 L 344.181 471.657 C 344.126 483.013 334.889 492.181 323.533 492.151 Z M 304.509 455.004 L 304.509 471.657 C 304.629 486.302 320.557 495.327 333.18 487.901 C 338.944 484.51 342.503 478.344 342.558 471.657 L 342.558 443.712 L 343.021 443.492 C 365.039 433.044 383.73 416.698 397.019 396.27 C 432.012 342.405 422.464 271.064 374.538 228.296 L 374.269 228.054 L 374.269 170.626 C 374.28 169.911 373.846 169.265 373.179 169.006 C 372.517 168.724 371.75 168.876 371.246 169.39 L 362.215 178.335 L 362.215 169.368 C 362.227 168.654 361.793 168.007 361.127 167.749 C 360.463 167.466 359.694 167.62 359.19 168.135 L 326.339 200.733 L 325.872 200.586 C 312.76 196.483 255.656 194.537 243.101 194.537 C 239.606 194.537 236.034 194.678 232.484 194.956 C 206.335 197.006 181.395 206.827 160.869 223.158 C 129.301 248.186 111.196 285.451 111.196 325.395 C 111.307 373.005 137.252 416.802 178.954 439.773 L 179.373 440.005 L 179.373 471.065 C 179.495 485.711 195.425 494.731 208.047 487.303 C 213.807 483.913 217.366 477.749 217.422 471.065 L 217.422 453.79 L 218.384 453.97 C 232.064 456.544 289.67 456.95 303.592 455.124 L 304.509 455.004 Z" fill="#3f3d56"/>
  <path d="M 213.502 104.527 L 123.622 131.538 C 115.318 134.044 112.841 144.599 119.163 150.538 C 122.09 153.287 126.26 154.271 130.108 153.119 L 208.761 129.477 L 210.41 128.982 C 210.743 120.491 213.046 112.194 217.138 104.747 C 216.624 104.516 216.076 104.373 215.515 104.325 C 214.837 104.259 214.153 104.328 213.502 104.527 Z" style="fill: rgb(0, 153, 255); fill-opacity: 0.5;"/>
  <path d="M 128.553 158.878 C 126.107 158.872 123.937 157.303 123.166 154.981 L 117.545 138.022 C 116.558 135.043 118.173 131.828 121.152 130.841 L 194.304 106.598 C 197.283 105.611 200.498 107.225 201.484 110.203 L 207.105 127.163 C 208.077 130.063 206.57 133.211 203.702 134.273 C 203.634 134.298 203.565 134.321 203.496 134.344 L 130.346 158.587 C 129.768 158.779 129.162 158.878 128.553 158.878 Z" fill="#2f2e41"/>
  <path d="M 265.551 74.408 C 234.858 74.42 209.718 98.798 208.761 129.477 C 208.745 130.053 208.737 130.637 208.737 131.222 C 208.737 174.957 256.082 202.292 293.958 180.424 C 331.834 158.556 331.834 103.887 293.958 82.02 C 285.321 77.034 275.524 74.408 265.551 74.408 Z M 265.551 186.412 C 235.083 186.381 210.393 161.689 210.36 131.222 C 210.36 130.467 210.377 129.72 210.41 128.982 C 212.135 86.533 259.167 61.87 295.066 84.589 C 330.965 107.308 328.808 160.37 291.183 180.1 C 283.276 184.246 274.479 186.412 265.551 186.412 Z" fill="#3f3d56" style="fill-opacity: 0.5;"/>
  <path d="M 313.437 131.222 C 313.437 168.084 273.532 191.124 241.608 172.693 C 226.793 164.138 217.665 148.33 217.665 131.222 C 217.665 129.704 217.738 128.211 217.876 126.734 C 221.331 90.034 263.22 70.836 293.276 92.179 C 305.923 101.159 313.437 115.71 313.437 131.222 Z" fill="#e6e6e6"/>
  <path d="M 279.811 134.403 C 278.65 132.878 277.124 131.669 275.372 130.889 C 273.211 129.978 270.98 129.245 268.7 128.698 L 268.7 115.663 C 272.205 116.191 275.491 117.69 278.188 119.989 L 280.835 114.348 C 279.313 112.993 277.565 111.913 275.672 111.158 C 273.574 110.309 271.371 109.744 269.122 109.478 L 269.122 102.872 L 262.995 102.872 L 262.995 109.543 C 260.628 109.81 258.346 110.576 256.299 111.792 C 254.449 112.886 252.893 114.412 251.761 116.239 C 250.682 118.022 250.123 120.072 250.147 122.156 C 250.041 124.415 250.696 126.643 252.006 128.487 C 253.211 130.082 254.802 131.345 256.631 132.155 C 258.827 133.093 261.096 133.845 263.417 134.403 L 263.417 146.894 C 259.281 146.583 255.341 145.01 252.127 142.39 L 249.481 148.039 C 251.278 149.525 253.322 150.684 255.52 151.464 C 257.927 152.326 260.443 152.85 262.995 153.022 L 262.995 159.572 L 269.122 159.572 L 269.122 152.9 C 272.526 152.529 275.718 151.065 278.22 148.729 C 280.449 146.592 281.679 143.619 281.614 140.531 C 281.715 138.345 281.08 136.187 279.811 134.403 Z M 263.417 127.318 C 261.924 126.865 260.537 126.121 259.334 125.127 C 258.37 124.269 257.84 123.024 257.89 121.734 C 257.845 120.288 258.377 118.884 259.366 117.83 C 260.464 116.724 261.881 115.989 263.417 115.728 L 263.417 127.318 Z M 272.548 144.589 C 271.512 145.652 270.164 146.354 268.7 146.594 L 268.7 135.848 C 270.099 136.224 271.407 136.878 272.548 137.772 C 273.423 138.519 273.91 139.625 273.871 140.775 C 273.927 142.167 273.454 143.53 272.548 144.589 Z" style="fill: rgb(55, 219, 82);"/>
  <path d="M 131.161 227.614 C 128.582 227.609 126.326 225.873 125.663 223.381 L 122.603 211.799 C 121.806 208.768 123.612 205.663 126.641 204.858 L 223.176 179.349 C 226.209 178.558 229.311 180.366 230.116 183.395 L 232.708 193.208 L 232.223 193.245 C 207.465 195.17 183.776 204.147 163.959 219.113 L 163.819 219.181 L 132.603 227.427 C 132.133 227.551 131.648 227.614 131.161 227.614 Z" fill="#2f2e41"/>
  <path d="M 115.174 284.822 C 103.849 283.149 93.019 279.054 83.421 272.817 C 78.666 269.729 74.264 266.128 70.294 262.08 C 66.376 258.083 62.627 253.541 60.686 248.218 C 58.819 243.294 58.915 237.84 60.955 232.985 C 62.967 228.159 66.811 224.328 71.643 222.331 C 76.504 220.393 82.378 220.186 87.109 222.309 C 89.363 223.296 91.315 224.867 92.761 226.859 C 93.434 227.777 93.932 228.811 94.231 229.909 C 94.508 230.904 94.533 231.952 94.304 232.96 C 93.743 234.994 92.33 236.687 90.429 237.605 C 88.361 238.665 86.121 239.349 83.813 239.622 C 81.492 239.939 78.157 240.227 76.291 238.363 C 75.907 237.995 75.604 237.549 75.404 237.057 C 75.264 236.679 75.216 236.273 75.264 235.873 C 75.237 236.05 75.377 235.49 75.369 235.512 C 75.339 235.595 75.211 235.796 75.393 235.486 C 75.45 235.384 75.513 235.286 75.582 235.192 C 75.52 235.272 75.385 235.405 75.627 235.176 C 75.827 234.958 76.084 234.799 76.369 234.718 C 76.481 234.685 76.595 234.659 76.708 234.628 C 76.994 234.55 76.423 234.633 76.715 234.624 C 76.829 234.62 76.943 234.623 77.055 234.618 C 77.343 234.605 76.772 234.539 77.047 234.609 C 77.154 234.636 77.261 234.662 77.365 234.695 C 77.595 234.767 77.204 234.527 77.359 234.706 C 77.541 234.917 77.168 234.502 77.374 234.705 C 77.477 234.807 77.574 234.913 77.665 235.026 C 78.411 235.762 79.609 235.762 80.355 235.026 C 81.074 234.273 81.074 233.088 80.355 232.336 C 78.48 230.009 74.774 230.584 72.876 232.55 C 70.456 235.056 71.414 239.029 73.768 241.216 C 76.433 243.693 80.208 243.865 83.637 243.449 C 86.533 243.172 89.357 242.374 91.971 241.094 C 94.568 239.818 96.6 237.623 97.672 234.935 C 98.651 232.034 98.338 228.851 96.814 226.195 C 93.788 220.504 87.52 217.587 81.325 217.082 C 74.882 216.577 68.506 218.67 63.616 222.895 C 58.95 227.096 56.077 232.929 55.591 239.188 C 55.05 245.678 57.568 251.981 61.239 257.218 C 65.082 262.539 69.669 267.282 74.858 271.302 C 85.003 279.402 96.903 285.014 109.605 287.69 C 111.116 288.002 112.635 288.269 114.162 288.491 C 115.171 288.735 116.196 288.154 116.503 287.162 C 116.774 286.15 116.182 285.108 115.174 284.822 Z" fill="#3f3d56"/>
  <path d="M 296.479 202.137 C 279.887 201.903 263.348 202.324 246.862 203.4 C 241.226 203.768 236.35 205.76 236.35 209.108 C 236.35 211.906 241.187 215.185 246.862 214.815 C 263.34 213.739 279.878 213.318 296.479 213.552 C 310.012 213.743 310.003 202.328 296.479 202.137 Z" fill="#ccc" style="fill-opacity: 0.5;"/>
  <path d="M 271.956 212.986 C 270.163 212.986 228.042 212.919 228.042 207.101 C 228.042 201.284 270.163 201.216 271.956 201.216 C 273.749 201.216 315.87 201.284 315.87 207.101 C 315.87 212.919 273.749 212.986 271.956 212.986 Z M 229.69 207.101 C 230.843 208.865 246.325 211.363 271.956 211.363 C 297.587 211.363 313.07 208.865 314.223 207.101 C 313.07 205.338 297.587 202.839 271.956 202.839 C 246.325 202.839 230.843 205.338 229.69 207.101 Z" fill="#3f3d56"/>
  <path d="M 405.593 365.937 C 414.917 365.678 426.522 365.355 435.462 358.824 C 440.85 354.726 444.154 348.458 444.488 341.696 C 444.67 336.538 442.807 332.036 439.241 329.023 C 434.572 325.077 427.753 324.152 420.405 326.312 L 428.018 270.677 L 422.43 269.91 L 413.479 335.317 L 418.147 333.176 C 423.557 330.694 430.984 329.431 435.599 333.331 C 437.897 335.398 439.099 338.417 438.85 341.498 C 438.574 346.529 436.123 351.19 432.134 354.268 C 425.177 359.35 415.928 360.006 405.437 360.299 L 405.593 365.937 Z" fill="#3f3d56"/>
  <rect x="359.76" y="275.474" width="30.381" height="5.641" fill="#3f3d56"/>
  <path d="M 144.909 253.558 C 142.116 253.549 139.742 251.514 139.306 248.756 L 137.451 236.92 C 136.969 233.822 139.087 230.917 142.185 230.428 L 240.823 214.972 C 243.922 214.49 246.827 216.608 247.315 219.706 L 249.169 231.541 C 249.652 234.641 247.534 237.545 244.436 238.034 L 145.798 253.489 C 145.504 253.534 145.207 253.558 144.909 253.558 Z" fill="#2f2e41"/>
  <circle cx="104.088" cy="73.472" r="41.393" style="fill: rgb(0, 153, 255); fill-opacity: 0.5;"/>
  <path d="M 127.524 84.183 C 128.847 83.72 130.055 82.98 131.068 82.011 C 132.425 80.613 133.095 78.687 132.898 76.749 C 132.784 75.366 132.03 74.115 130.859 73.369 C 129.361 72.448 127.382 72.483 125.383 73.409 L 125.153 57.251 L 123.53 57.275 L 123.801 76.27 L 125.036 75.459 C 126.469 74.521 128.528 73.841 130.009 74.752 C 130.751 75.241 131.224 76.048 131.285 76.935 C 131.423 78.378 130.927 79.81 129.925 80.858 C 128.166 82.604 125.561 83.189 122.589 83.724 L 122.876 85.321 C 124.456 85.082 126.012 84.7 127.524 84.183 Z" fill="#2f2e41"/>
  <rect x="339.939" y="171.804" width="8.743" height="1.623" transform="matrix(0.988726, -0.149736, 0.149736, 0.988726, -228.608521, -61.539322)" fill="#2f2e41"/>
  <rect x="312.655" y="175.935" width="8.743" height="1.623" transform="matrix(0.988726, -0.149736, 0.149736, 0.988726, -229.534698, -65.578171)" fill="#2f2e41"/>
  <path d="M 131.442 252.835 C 128.394 252.828 125.668 250.936 124.597 248.083 L 96.058 171.653 C 88.795 152.136 98.701 130.422 118.202 123.115 L 141.408 114.45 C 143.22 113.769 145.229 113.839 146.99 114.644 C 148.747 115.429 150.114 116.888 150.785 118.691 L 203.651 218.508 C 205.095 222.295 203.181 226.533 199.385 227.954 L 133.995 252.37 C 133.179 252.676 132.314 252.834 131.442 252.835 Z" fill="#2f2e41"/>
  <path d="M 134.367 117.079 L 186.822 187.225 L 151.328 117.815 C 150.095 114.41 146.334 112.649 142.928 113.882 L 134.367 117.079 Z" fill="#e6e6e6"/>
  <path d="M 217.422 170.35 L 123.765 164.317 C 115.111 163.76 110.306 154.044 115.115 146.828 C 117.347 143.479 121.196 141.576 125.213 141.835 L 218.87 147.867 C 221.778 148.054 223.983 150.563 223.796 153.47 L 223.026 165.424 C 222.838 168.332 220.33 170.538 217.422 170.35 Z" style="fill: rgba(98, 192, 255, 0.98);"/>
  <path d="M 192.396 174.218 C 192.272 174.218 192.148 174.214 192.023 174.206 L 115.117 169.252 C 111.986 169.051 109.611 166.349 109.812 163.218 L 111.128 142.799 C 111.329 139.668 114.031 137.293 117.163 137.495 L 194.069 142.448 C 197.198 142.653 199.571 145.352 199.373 148.483 L 198.059 168.902 C 197.911 171.137 196.467 173.077 194.369 173.861 C 193.738 174.097 193.07 174.218 192.396 174.218 Z" fill="#2f2e41"/>
  <path d="M 103.614 45.947 C 109.059 41.264 116.537 45.453 122.781 44.72 C 128.756 44.018 133.474 38.659 134.679 32.966 C 136.085 26.323 132.637 19.669 127.555 15.527 C 121.99 10.991 114.608 9.689 107.614 10.528 C 99.596 11.49 92.265 15.227 85.686 19.748 C 79.336 23.975 73.496 28.924 68.283 34.494 C 63.616 39.649 59.66 45.794 58.398 52.73 C 57.25 59.035 58.127 66.021 61.853 71.362 C 63.83 74.099 66.478 76.281 69.543 77.697 C 72.738 79.266 76.148 80.388 79.243 82.162 C 83.925 84.845 88.475 90.407 87.008 96.196 C 86.694 97.461 86.073 98.628 85.201 99.597 C 84.154 100.759 82.264 99.223 83.314 98.056 C 85.159 96.009 85.087 93.278 84.103 90.833 C 82.935 88.078 80.865 85.802 78.233 84.377 C 74.992 82.524 71.414 81.381 68.092 79.693 C 64.913 78.151 62.153 75.864 60.048 73.027 C 56.072 67.502 54.883 60.312 55.785 53.661 C 56.761 46.462 60.459 39.921 65.095 34.441 C 70.14 28.476 76.338 23.427 82.668 18.891 C 89.462 14.023 96.967 9.908 105.272 8.42 C 112.471 7.13 120.275 7.924 126.571 11.847 C 132.447 15.509 136.953 21.809 137.401 28.848 C 137.729 35.37 134.508 41.559 128.98 45.034 C 126.193 46.701 122.954 47.452 119.719 47.179 C 116.26 46.957 112.797 45.898 109.317 46.193 C 107.742 46.289 106.24 46.895 105.042 47.92 C 103.852 48.943 102.434 46.962 103.614 45.947 Z" fill="#2f2e41"/>
</svg>